<?xml version="1.0" encoding="UTF-8"?><svg id="a" xmlns="http://www.w3.org/2000/svg" viewBox="0 0 427.37 97.56"><path d="M71.05,0h-17.74v22.29H.09v17.74h53.21v17.28l-53.31.22.07,17.74,53.23-.22v22.51h17.74c26.94,0,48.78-21.84,48.78-48.78S97.99,0,71.05,0Z" fill="#fff"/><polygon points="164.55 36.07 164.55 22.29 142.26 22.29 142.26 36.07 142.26 58.36 142.26 72.15 164.55 72.15 164.55 58.36 195.48 58.36 195.48 36.07 164.55 36.07" fill="#fff"/><rect x="233.24" y="2.17" width="194.13" height="28.53" fill="#fff"/><rect x="233.24" y="34.56" width="194.13" height="28.53" fill="#fff"/><rect x="233.24" y="66.86" width="194.13" height="28.53" fill="#fff"/><path d="M246.92,7.74v3.1h-6.31v4.21h5.75v3.1h-5.75v5.04h6.49v3.1h-9.65V7.74h9.46Z"/><path d="M258.19,13.2l2.33-5.46h3.53l-4.11,8.88,4.48,9.68h-3.55l-2.68-6.12-2.7,6.12h-3.55l4.48-9.68-4.08-8.88h3.53l2.33,5.46Z"/><path d="M269.11,7.74h5.46c.62,0,1.2.12,1.75.34.55.23,1.02.55,1.43.95.41.41.72.88.95,1.43.23.55.34,1.13.34,1.75v3.55c0,.64-.12,1.23-.34,1.78-.23.55-.55,1.03-.95,1.43-.41.41-.88.72-1.43.95-.55.23-1.13.34-1.75.34h-2.25v6.02h-3.21V7.74ZM275.79,12.08c0-.35-.13-.65-.38-.89-.26-.24-.57-.36-.94-.36h-2.15v6.36h2.15c.37,0,.68-.12.94-.36.26-.24.38-.53.38-.86v-3.9Z"/><path d="M294.64,7.74v3.1h-6.31v4.21h5.75v3.1h-5.75v5.04h6.49v3.1h-9.65V7.74h9.46Z"/><path d="M305.27,19.98h-1.59v6.31h-3.18V7.74h5.49c.62,0,1.2.12,1.75.34.55.23,1.02.55,1.43.95.41.41.72.88.95,1.43.23.55.34,1.13.34,1.75v3.31c0,.78-.19,1.5-.57,2.17-.38.67-.88,1.21-1.5,1.62l2.92,6.97h-3.5l-2.54-6.31ZM307.23,12.08c0-.35-.13-.65-.38-.89-.26-.24-.56-.36-.91-.36h-2.25v6.04h2.25c.35,0,.66-.12.91-.36.26-.24.38-.53.38-.89v-3.55Z"/><path d="M316.59,7.74h10.42v2.97h-3.58v12.62h3.58v2.97h-10.42v-2.97h3.61v-12.62h-3.61v-2.97Z"/><path d="M342.35,7.74v3.1h-6.31v4.21h5.75v3.1h-5.75v5.04h6.49v3.1h-9.65V7.74h9.46Z"/><path d="M358.89,7.74v18.56h-3.31l-3.26-8.88-.93-3.15h-.11l.19,3.26v8.77h-3.13V7.74h3.31l3.23,8.77.98,3.23h.11l-.21-3.26V7.74h3.13Z"/><path d="M364.04,7.74h10.95v3.1h-3.87v15.46h-3.23v-15.46h-3.84v-3.1Z"/><path d="M380.21,7.74h10.42v2.97h-3.58v12.62h3.58v2.97h-10.42v-2.97h3.61v-12.62h-3.61v-2.97Z"/><path d="M403.85,7.74l2.76,10.44v8.11h-3.13v-5.51h-4.29v5.51h-3.13v-8.11l2.76-10.44h5.04ZM401.6,10.84h-.53l-1.59,6.84h3.71l-1.59-6.84Z"/><path d="M415.25,7.74v15.46h7.13v3.1h-10.31V7.74h3.18Z"/><path d="M247.4,52.94c0,.72-.14,1.4-.41,2.03-.27.63-.64,1.17-1.1,1.63s-1.01.83-1.64,1.1c-.64.27-1.31.41-2.01.41h-5.09v-18.56h5.09c.71,0,1.38.14,2.01.41.64.27,1.18.64,1.64,1.1s.83,1.01,1.1,1.64c.27.64.41,1.31.41,2.01v8.22ZM244.11,44.61c0-.55-.19-1.01-.56-1.39-.37-.38-.84-.57-1.41-.57h-1.83v12.35h1.83c.57,0,1.03-.19,1.41-.56.37-.37.56-.83.56-1.38v-8.46Z"/><path d="M262.83,39.55v3.1h-6.31v4.21h5.75v3.1h-5.75v5.04h6.49v3.1h-9.65v-18.56h9.46Z"/><path d="M276.08,44.77c0-.67-.19-1.24-.56-1.7-.37-.46-.84-.69-1.41-.69s-1.01.18-1.39.53c-.38.35-.57.79-.57,1.3s.18.95.54,1.3c.36.35.81.69,1.35,1.02.54.33,1.13.67,1.76,1.02.64.35,1.22.78,1.76,1.27.54.5.99,1.09,1.35,1.79.36.7.54,1.55.54,2.56,0,.71-.13,1.37-.4,2-.27.63-.63,1.18-1.1,1.66-.47.48-1.02.85-1.64,1.13-.63.27-1.3.41-2.03.41h-.42c-.72,0-1.4-.14-2.03-.41-.63-.27-1.18-.65-1.64-1.13-.47-.48-.84-1.03-1.11-1.66-.27-.63-.41-1.29-.41-2v-.85h3.18v.85c0,.57.2,1.06.61,1.47.41.42.89.62,1.46.62h.29c.57,0,1.05-.19,1.44-.58.4-.39.6-.83.6-1.33,0-.64-.18-1.16-.54-1.58-.36-.42-.81-.79-1.35-1.13-.54-.34-1.13-.67-1.76-.99-.64-.33-1.22-.71-1.76-1.15-.54-.44-.99-.99-1.35-1.63-.36-.64-.54-1.45-.54-2.43,0-.74.14-1.43.41-2.05.27-.63.64-1.17,1.1-1.63.46-.46,1-.82,1.63-1.09.63-.26,1.3-.4,2.03-.4s1.37.13,2,.4c.63.27,1.18.64,1.64,1.11.47.48.84,1.05,1.1,1.72.27.67.4,1.42.4,2.25h-3.18Z"/><path d="M284.78,39.55h10.42v2.97h-3.58v12.62h3.58v2.97h-10.42v-2.97h3.61v-12.62h-3.61v-2.97Z"/><path d="M311.28,53.17c0,.71-.13,1.37-.4,2-.27.63-.63,1.18-1.09,1.66-.46.48-1,.85-1.63,1.13-.63.27-1.3.41-2.03.41h-.42c-.72,0-1.4-.14-2.03-.41-.63-.27-1.18-.65-1.64-1.13-.47-.48-.84-1.03-1.11-1.67-.27-.64-.41-1.31-.41-2.01v-8.67c0-.71.14-1.37.41-2,.27-.63.64-1.18,1.11-1.66.47-.48,1.02-.85,1.64-1.13.63-.27,1.3-.41,2.03-.41h.42c.72,0,1.4.13,2.03.4.63.27,1.17.64,1.63,1.13.46.49.82,1.07,1.09,1.74.27.67.4,1.41.4,2.23h-3.18c0-.72-.2-1.3-.61-1.72-.41-.42-.89-.64-1.46-.64h-.27c-.57,0-1.05.19-1.46.56-.41.37-.61.83-.61,1.38v8.96c0,.55.2,1.01.61,1.39.41.38.89.57,1.46.57h.27c.57,0,1.05-.19,1.46-.56.41-.37.61-.83.61-1.38v-2.17h-2.2v-3.08h5.38v5.09Z"/><path d="M327.08,39.55v18.56h-3.31l-3.26-8.88-.93-3.15h-.11l.19,3.26v8.77h-3.13v-18.56h3.31l3.23,8.77.98,3.23h.11l-.21-3.26v-8.75h3.13Z"/><path d="M236.79,71.36h10.95v3.1h-3.87v15.46h-3.23v-15.46h-3.84v-3.1Z"/><path d="M262.83,71.36v3.1h-6.31v4.21h5.75v3.1h-5.75v5.04h6.49v3.1h-9.65v-18.56h9.46Z"/><path d="M276.61,71.36l2.76,10.44v8.11h-3.13v-5.51h-4.29v5.51h-3.13v-8.11l2.76-10.44h5.04ZM274.36,74.46h-.53l-1.59,6.84h3.71l-1.59-6.84Z"/><path d="M296.2,71.36v18.56h-3.13v-11.03l.19-2.39h-.11l-1.91,4.64h-2.52l-1.88-4.64h-.11l.19,2.39v11.03h-3.13v-18.56h3.55l2.6,6.26h.11l2.6-6.26h3.55Z"/></svg>